<svg width="38" height="34" viewBox="0 0 38 34" fill="none" xmlns="http://www.w3.org/2000/svg">
<path d="M37.4512 0.553345V13.3031L0 28.3684L37.4512 0.553345Z" fill="#00C9FF"/>
<path d="M30.4302 0V21.9942C30.4302 25.0678 29.1971 28.0156 27.0021 30.1889C24.8071 32.3624 21.8301 33.5833 18.726 33.5833C15.6218 33.5833 12.6448 32.3624 10.4498 30.1889C8.25485 28.0156 7.02173 25.0678 7.02173 21.9942V12.7264L14.0431 8.90036V21.9942C13.9774 22.5657 14.0343 23.1444 14.2101 23.6926C14.386 24.2408 14.6768 24.7459 15.0636 25.175C15.4505 25.6041 15.9244 25.9474 16.4545 26.1825C16.9847 26.4176 17.559 26.5392 18.1399 26.5392C18.7207 26.5392 19.2951 26.4176 19.8252 26.1825C20.3553 25.9474 20.8293 25.6041 21.216 25.175C21.6028 24.7459 21.8937 24.2408 22.0696 23.6926C22.2455 23.1444 22.3024 22.5657 22.2366 21.9942V4.4385L30.4302 0Z" fill="#775AF0"/>
</svg>
