<svg width="153" height="40" viewBox="0 0 153 40" fill="none" xmlns="http://www.w3.org/2000/svg">
<path d="M26.755 18.4375H24.2663C24.2209 18.1155 24.1281 17.8295 23.9879 17.5795C23.8478 17.3258 23.6679 17.1098 23.4482 16.9318C23.2285 16.7538 22.9747 16.6174 22.6868 16.5227C22.4027 16.428 22.094 16.3807 21.7607 16.3807C21.1584 16.3807 20.6338 16.5303 20.1868 16.8295C19.7398 17.125 19.3932 17.5568 19.147 18.125C18.9008 18.6894 18.7777 19.375 18.7777 20.1818C18.7777 21.0114 18.9008 21.7083 19.147 22.2727C19.397 22.8371 19.7455 23.2633 20.1925 23.5511C20.6394 23.839 21.1565 23.983 21.7436 23.983C22.0732 23.983 22.3781 23.9394 22.6584 23.8523C22.9425 23.7652 23.1944 23.6383 23.4141 23.4716C23.6338 23.3011 23.8156 23.0947 23.9595 22.8523C24.1072 22.6098 24.2095 22.3333 24.2663 22.0227L26.755 22.0341C26.6906 22.5682 26.5296 23.0833 26.272 23.5795C26.0182 24.072 25.6754 24.5133 25.2436 24.9034C24.8156 25.2898 24.3042 25.5966 23.7095 25.8239C23.1186 26.0473 22.45 26.1591 21.7038 26.1591C20.666 26.1591 19.7379 25.9242 18.9197 25.4545C18.1054 24.9848 17.4614 24.3049 16.9879 23.4148C16.5182 22.5246 16.2834 21.447 16.2834 20.1818C16.2834 18.9129 16.522 17.8333 16.9993 16.9432C17.4766 16.053 18.1243 15.375 18.9425 14.9091C19.7607 14.4394 20.6811 14.2045 21.7038 14.2045C22.3781 14.2045 23.0031 14.2992 23.5788 14.4886C24.1584 14.678 24.6716 14.9545 25.1186 15.3182C25.5656 15.678 25.9292 16.1193 26.2095 16.642C26.4936 17.1648 26.6754 17.7633 26.755 18.4375ZM32.4169 26.1705C31.5343 26.1705 30.7711 25.983 30.1271 25.608C29.487 25.2292 28.9927 24.7027 28.6442 24.0284C28.2957 23.3504 28.1214 22.5644 28.1214 21.6705C28.1214 20.7689 28.2957 19.9811 28.6442 19.3068C28.9927 18.6288 29.487 18.1023 30.1271 17.7273C30.7711 17.3485 31.5343 17.1591 32.4169 17.1591C33.2995 17.1591 34.0608 17.3485 34.701 17.7273C35.3449 18.1023 35.8411 18.6288 36.1896 19.3068C36.5381 19.9811 36.7124 20.7689 36.7124 21.6705C36.7124 22.5644 36.5381 23.3504 36.1896 24.0284C35.8411 24.7027 35.3449 25.2292 34.701 25.608C34.0608 25.983 33.2995 26.1705 32.4169 26.1705ZM32.4283 24.2955C32.8298 24.2955 33.165 24.1818 33.4339 23.9545C33.7029 23.7235 33.9055 23.4091 34.0419 23.0114C34.1821 22.6136 34.2521 22.161 34.2521 21.6534C34.2521 21.1458 34.1821 20.6932 34.0419 20.2955C33.9055 19.8977 33.7029 19.5833 33.4339 19.3523C33.165 19.1212 32.8298 19.0057 32.4283 19.0057C32.023 19.0057 31.6821 19.1212 31.4055 19.3523C31.1328 19.5833 30.9264 19.8977 30.7862 20.2955C30.6499 20.6932 30.5817 21.1458 30.5817 21.6534C30.5817 22.161 30.6499 22.6136 30.7862 23.0114C30.9264 23.4091 31.1328 23.7235 31.4055 23.9545C31.6821 24.1818 32.023 24.2955 32.4283 24.2955ZM40.7067 20.9545V26H38.2862V17.2727H40.593V18.8125H40.6953C40.8885 18.3049 41.2124 17.9034 41.6669 17.608C42.1214 17.3087 42.6726 17.1591 43.3203 17.1591C43.9264 17.1591 44.4548 17.2917 44.9055 17.5568C45.3563 17.822 45.7067 18.2008 45.9567 18.6932C46.2067 19.1818 46.3317 19.7652 46.3317 20.4432V26H43.9112V20.875C43.915 20.3409 43.7786 19.9242 43.5021 19.625C43.2256 19.322 42.8449 19.1705 42.3601 19.1705C42.0343 19.1705 41.7464 19.2405 41.4964 19.3807C41.2502 19.5208 41.0571 19.7254 40.9169 19.9943C40.7805 20.2595 40.7105 20.5795 40.7067 20.9545ZM50.6598 20.9545V26H48.2393V17.2727H50.5462V18.8125H50.6484C50.8416 18.3049 51.1655 17.9034 51.62 17.608C52.0746 17.3087 52.6257 17.1591 53.2734 17.1591C53.8795 17.1591 54.4079 17.2917 54.8587 17.5568C55.3094 17.822 55.6598 18.2008 55.9098 18.6932C56.1598 19.1818 56.2848 19.7652 56.2848 20.4432V26H53.8643V20.875C53.8681 20.3409 53.7318 19.9242 53.4553 19.625C53.1787 19.322 52.7981 19.1705 52.3132 19.1705C51.9875 19.1705 51.6996 19.2405 51.4496 19.3807C51.2034 19.5208 51.0102 19.7254 50.87 19.9943C50.7337 20.2595 50.6636 20.5795 50.6598 20.9545ZM62.1697 26.1705C61.272 26.1705 60.4993 25.9886 59.8516 25.625C59.2076 25.2576 58.7114 24.7386 58.3629 24.0682C58.0144 23.3939 57.8402 22.5966 57.8402 21.6761C57.8402 20.7784 58.0144 19.9905 58.3629 19.3125C58.7114 18.6345 59.2019 18.1061 59.8345 17.7273C60.4709 17.3485 61.2171 17.1591 62.0732 17.1591C62.6489 17.1591 63.1849 17.2519 63.6811 17.4375C64.1811 17.6193 64.6167 17.8939 64.9879 18.2614C65.3629 18.6288 65.6546 19.0909 65.8629 19.6477C66.0713 20.2008 66.1754 20.8485 66.1754 21.5909V22.2557H58.8061V20.7557H63.897C63.897 20.4072 63.8213 20.0985 63.6697 19.8295C63.5182 19.5606 63.308 19.3504 63.0391 19.1989C62.7739 19.0436 62.4652 18.9659 62.1129 18.9659C61.7455 18.9659 61.4197 19.0511 61.1357 19.2216C60.8554 19.3883 60.6357 19.6136 60.4766 19.8977C60.3175 20.178 60.236 20.4905 60.2322 20.8352V22.2614C60.2322 22.6932 60.3118 23.0663 60.4709 23.3807C60.6338 23.6951 60.8629 23.9375 61.1584 24.108C61.4538 24.2784 61.8042 24.3636 62.2095 24.3636C62.4785 24.3636 62.7247 24.3258 62.9482 24.25C63.1716 24.1742 63.3629 24.0606 63.522 23.9091C63.6811 23.7576 63.8023 23.572 63.8857 23.3523L66.1243 23.5C66.0107 24.0379 65.7777 24.5076 65.4254 24.9091C65.0769 25.3068 64.6262 25.6174 64.0732 25.8409C63.5239 26.0606 62.8894 26.1705 62.1697 26.1705ZM71.6982 26.1705C70.8042 26.1705 70.0353 25.9811 69.3913 25.6023C68.7512 25.2197 68.2588 24.6894 67.9141 24.0114C67.5732 23.3333 67.4027 22.553 67.4027 21.6705C67.4027 20.7765 67.575 19.9924 67.9197 19.3182C68.2682 18.6402 68.7625 18.1117 69.4027 17.733C70.0429 17.3504 70.8042 17.1591 71.6868 17.1591C72.4482 17.1591 73.1148 17.2973 73.6868 17.5739C74.2588 17.8504 74.7114 18.2386 75.0447 18.7386C75.3781 19.2386 75.5618 19.8258 75.5959 20.5H73.3118C73.2474 20.0644 73.0769 19.714 72.8004 19.4489C72.5277 19.1799 72.1697 19.0455 71.7266 19.0455C71.3516 19.0455 71.0239 19.1477 70.7436 19.3523C70.4671 19.553 70.2512 19.8466 70.0959 20.233C69.9406 20.6193 69.8629 21.0871 69.8629 21.6364C69.8629 22.1932 69.9387 22.6667 70.0902 23.0568C70.2455 23.447 70.4633 23.7443 70.7436 23.9489C71.0239 24.1534 71.3516 24.2557 71.7266 24.2557C72.0031 24.2557 72.2512 24.1989 72.4709 24.0852C72.6944 23.9716 72.8781 23.8068 73.022 23.5909C73.1697 23.3712 73.2663 23.108 73.3118 22.8011H75.5959C75.558 23.4678 75.3762 24.0549 75.0504 24.5625C74.7285 25.0663 74.2834 25.4602 73.7152 25.7443C73.147 26.0284 72.4747 26.1705 71.6982 26.1705ZM81.7876 17.2727V19.0909H76.532V17.2727H81.7876ZM77.7251 15.1818H80.1456V23.3182C80.1456 23.5417 80.1797 23.7159 80.2479 23.8409C80.3161 23.9621 80.4107 24.0473 80.532 24.0966C80.657 24.1458 80.8009 24.1705 80.9638 24.1705C81.0774 24.1705 81.1911 24.161 81.3047 24.142C81.4183 24.1193 81.5054 24.1023 81.5661 24.0909L81.9467 25.892C81.8255 25.9299 81.6551 25.9735 81.4354 26.0227C81.2157 26.0758 80.9486 26.108 80.6342 26.1193C80.0509 26.142 79.5395 26.0644 79.1001 25.8864C78.6645 25.7083 78.3255 25.4318 78.0831 25.0568C77.8407 24.6818 77.7214 24.2083 77.7251 23.6364V15.1818ZM89.7322 26L86.4027 14.3636H89.0902L91.0163 22.4489H91.1129L93.2379 14.3636H95.5391L97.6584 22.4659H97.7607L99.6868 14.3636H102.374L99.0447 26H96.647L94.4311 18.392H94.3402L92.13 26H89.7322ZM105.197 26.1648C104.64 26.1648 104.144 26.0682 103.708 25.875C103.272 25.678 102.928 25.3883 102.674 25.0057C102.424 24.6193 102.299 24.1383 102.299 23.5625C102.299 23.0777 102.388 22.6705 102.566 22.3409C102.744 22.0114 102.987 21.7462 103.293 21.5455C103.6 21.3447 103.949 21.1932 104.339 21.0909C104.733 20.9886 105.146 20.9167 105.577 20.875C106.085 20.822 106.494 20.7727 106.805 20.7273C107.115 20.678 107.341 20.6061 107.481 20.5114C107.621 20.4167 107.691 20.2765 107.691 20.0909V20.0568C107.691 19.697 107.577 19.4186 107.35 19.2216C107.127 19.0246 106.808 18.9261 106.396 18.9261C105.96 18.9261 105.613 19.0227 105.356 19.2159C105.098 19.4053 104.928 19.6439 104.844 19.9318L102.606 19.75C102.719 19.2197 102.943 18.7614 103.276 18.375C103.61 17.9848 104.04 17.6856 104.566 17.4773C105.096 17.2652 105.71 17.1591 106.407 17.1591C106.892 17.1591 107.356 17.2159 107.799 17.3295C108.246 17.4432 108.642 17.6193 108.987 17.858C109.335 18.0966 109.61 18.4034 109.81 18.7784C110.011 19.1496 110.112 19.5947 110.112 20.1136V26H107.816V24.7898H107.748C107.608 25.0625 107.42 25.303 107.185 25.5114C106.951 25.7159 106.668 25.8769 106.339 25.9943C106.009 26.108 105.629 26.1648 105.197 26.1648ZM105.89 24.4943C106.246 24.4943 106.56 24.4242 106.833 24.2841C107.106 24.1402 107.32 23.947 107.475 23.7045C107.63 23.4621 107.708 23.1875 107.708 22.8807V21.9545C107.632 22.0038 107.528 22.0492 107.396 22.0909C107.267 22.1288 107.121 22.1648 106.958 22.1989C106.795 22.2292 106.632 22.2576 106.469 22.2841C106.307 22.3068 106.159 22.3277 106.026 22.3466C105.742 22.3883 105.494 22.4545 105.282 22.5455C105.07 22.6364 104.905 22.7595 104.788 22.9148C104.67 23.0663 104.612 23.2557 104.612 23.483C104.612 23.8125 104.731 24.0644 104.969 24.2386C105.212 24.4091 105.519 24.4943 105.89 24.4943ZM114.41 14.3636V26H111.989V14.3636H114.41ZM118.769 14.3636V26H116.349V14.3636H118.769ZM124.685 26.1705C123.788 26.1705 123.015 25.9886 122.367 25.625C121.723 25.2576 121.227 24.7386 120.879 24.0682C120.53 23.3939 120.356 22.5966 120.356 21.6761C120.356 20.7784 120.53 19.9905 120.879 19.3125C121.227 18.6345 121.718 18.1061 122.35 17.7273C122.987 17.3485 123.733 17.1591 124.589 17.1591C125.165 17.1591 125.701 17.2519 126.197 17.4375C126.697 17.6193 127.132 17.8939 127.504 18.2614C127.879 18.6288 128.17 19.0909 128.379 19.6477C128.587 20.2008 128.691 20.8485 128.691 21.5909V22.2557H121.322V20.7557H126.413C126.413 20.4072 126.337 20.0985 126.185 19.8295C126.034 19.5606 125.824 19.3504 125.555 19.1989C125.29 19.0436 124.981 18.9659 124.629 18.9659C124.261 18.9659 123.935 19.0511 123.651 19.2216C123.371 19.3883 123.151 19.6136 122.992 19.8977C122.833 20.178 122.752 20.4905 122.748 20.8352V22.2614C122.748 22.6932 122.827 23.0663 122.987 23.3807C123.149 23.6951 123.379 23.9375 123.674 24.108C123.969 24.2784 124.32 24.3636 124.725 24.3636C124.994 24.3636 125.24 24.3258 125.464 24.25C125.687 24.1742 125.879 24.0606 126.038 23.9091C126.197 23.7576 126.318 23.572 126.401 23.3523L128.64 23.5C128.526 24.0379 128.293 24.5076 127.941 24.9091C127.593 25.3068 127.142 25.6174 126.589 25.8409C126.04 26.0606 125.405 26.1705 124.685 26.1705ZM134.913 17.2727V19.0909H129.657V17.2727H134.913ZM130.85 15.1818H133.271V23.3182C133.271 23.5417 133.305 23.7159 133.373 23.8409C133.441 23.9621 133.536 24.0473 133.657 24.0966C133.782 24.1458 133.926 24.1705 134.089 24.1705C134.202 24.1705 134.316 24.161 134.43 24.142C134.543 24.1193 134.63 24.1023 134.691 24.0909L135.072 25.892C134.951 25.9299 134.78 25.9735 134.56 26.0227C134.341 26.0758 134.074 26.108 133.759 26.1193C133.176 26.142 132.665 26.0644 132.225 25.8864C131.79 25.7083 131.451 25.4318 131.208 25.0568C130.966 24.6818 130.846 24.2083 130.85 23.6364V15.1818Z" fill="#775AF0"/>
<path d="M151.5 0.5V7.87731L143.303 0.5H151.5ZM0.5 0.5H134.811L151.5 15.2256V39.5H17.1937L0.5 24.2793V0.5Z" stroke="#775AF0" stroke-opacity="0.5"/>
</svg>
