<svg width="25" height="25" viewBox="0 0 25 25" fill="none" xmlns="http://www.w3.org/2000/svg">
<g clip-path="url(#clip0_2_37)">
<path d="M23.715 21.0632C23.7975 20.9835 23.863 20.888 23.9078 20.7825C23.9526 20.6769 23.9756 20.5634 23.9756 20.4488C23.9756 20.3341 23.9526 20.2206 23.9078 20.1151C23.863 20.0095 23.7975 19.9141 23.715 19.8344L21.1902 17.3C21.1672 17.2784 21.1489 17.2524 21.1364 17.2235C21.1239 17.1946 21.1174 17.1635 21.1174 17.132C21.1174 17.1005 21.1239 17.0693 21.1364 17.0404C21.1489 17.0115 21.1672 16.9855 21.1902 16.964L22.3902 15.764C22.4954 15.6553 22.5711 15.5215 22.6096 15.3752C22.6483 15.229 22.6488 15.0753 22.611 14.9288C22.5728 14.7824 22.4968 14.6486 22.3907 14.5408C22.2846 14.433 22.152 14.3549 22.0062 14.3144L13.5198 11.8952C13.3714 11.8561 13.2154 11.8566 13.0672 11.897C12.9192 11.9373 12.7843 12.0159 12.6763 12.1249C12.5683 12.2339 12.4909 12.3695 12.4519 12.5179C12.4129 12.6663 12.4137 12.8224 12.4542 12.9704L14.8734 21.4568C14.9142 21.6035 14.9921 21.7371 15.0999 21.8448C15.2075 21.9525 15.3411 22.0304 15.4878 22.0712C15.6353 22.101 15.7878 22.0956 15.9328 22.0556C16.0779 22.0155 16.2116 21.942 16.323 21.8408L17.4078 20.756C17.4294 20.7331 17.4554 20.7147 17.4843 20.7023C17.5132 20.6897 17.5443 20.6833 17.5758 20.6833C17.6073 20.6833 17.6385 20.6897 17.6674 20.7023C17.6963 20.7147 17.7223 20.7331 17.7438 20.756L20.2782 23.2808C20.3579 23.3633 20.4533 23.4289 20.5589 23.4736C20.6644 23.5184 20.778 23.5415 20.8926 23.5415C21.0072 23.5415 21.1208 23.5184 21.2263 23.4736C21.3319 23.4289 21.4273 23.3633 21.507 23.2808L23.715 21.0632Z" fill="#8E88AB"/>
<path d="M9.38229 18.0488C9.36883 18.0148 9.3633 17.9783 9.36612 17.9419C9.36893 17.9055 9.38002 17.8702 9.39854 17.8387C9.41706 17.8072 9.44251 17.7804 9.47297 17.7602C9.50342 17.7401 9.53808 17.7271 9.57429 17.7224C9.78569 17.6457 9.96346 17.4972 10.0766 17.3029C10.1897 17.1085 10.2311 16.8806 10.1933 16.6589C10.1556 16.4373 10.0413 16.2359 9.87024 16.0898C9.69921 15.9438 9.48236 15.8624 9.25749 15.86H8.87349C8.81375 15.8683 8.75314 15.8528 8.70468 15.8169C8.65622 15.781 8.62376 15.7275 8.61429 15.668C8.37427 14.629 8.2519 13.5663 8.24949 12.5C8.24833 11.5982 8.3319 10.6982 8.49909 9.81198C8.50998 9.75857 8.53872 9.71045 8.5806 9.67556C8.62248 9.64066 8.67499 9.62106 8.72949 9.61998H16.4095C16.464 9.62106 16.5165 9.64066 16.5583 9.67556C16.6003 9.71045 16.629 9.75857 16.6399 9.81198C16.7189 10.2086 16.7766 10.6092 16.8127 11.012C16.8368 11.2666 16.9612 11.5011 17.1583 11.6641C17.3555 11.8271 17.6092 11.905 17.8639 11.8808C18.1185 11.8566 18.3531 11.7323 18.516 11.5351C18.679 11.3379 18.7568 11.0842 18.7327 10.8296C18.7327 10.5032 18.6654 10.196 18.6175 9.86958C18.612 9.83531 18.6144 9.80023 18.6244 9.76699C18.6342 9.73374 18.6516 9.70318 18.675 9.67758C18.6988 9.6543 18.7277 9.63695 18.7594 9.62695C18.7911 9.61694 18.8247 9.61455 18.8575 9.61998H21.5454C21.5974 9.61998 21.648 9.63682 21.6895 9.66798C21.731 9.69913 21.7613 9.74293 21.7758 9.79278C21.9023 10.2044 21.9985 10.6247 22.0639 11.0504C22.102 11.305 22.2398 11.534 22.4469 11.687C22.6539 11.84 22.9132 11.9046 23.1678 11.8664C23.4225 11.8282 23.6515 11.6904 23.8045 11.4834C23.9575 11.2763 24.022 11.017 23.9839 10.7624C23.6516 8.58449 22.7018 6.54755 21.247 4.89307C19.7922 3.23858 17.8935 2.03594 15.776 1.42772C13.6586 0.819502 11.4111 0.831214 9.30008 1.46147C7.18906 2.09173 5.30303 3.3141 3.86559 4.98365C2.42814 6.65321 1.49959 8.69993 1.19 10.8812C0.880411 13.0624 1.20278 15.2867 2.11887 17.2903C3.03497 19.2939 4.50638 20.9927 6.35866 22.1855C8.21093 23.3783 10.3664 24.0149 12.5695 24.02C12.7954 24.024 13.0156 23.9484 13.1912 23.8061C13.3668 23.6639 13.4866 23.4643 13.5295 23.2424C13.7791 21.7832 11.3119 22.2824 9.38229 18.0488ZM6.61749 15.572C6.64178 15.637 6.64178 15.7086 6.61749 15.7736C6.59416 15.8016 6.56474 15.824 6.53147 15.839C6.4982 15.854 6.46195 15.8612 6.42549 15.86H3.75669C3.70761 15.8587 3.66013 15.8423 3.62065 15.8131C3.58116 15.7839 3.55158 15.7433 3.53589 15.6968C3.1655 14.6714 2.97392 13.5902 2.96949 12.5C2.9717 11.5835 3.10422 10.672 3.36309 9.79278C3.37763 9.74293 3.40795 9.69913 3.44949 9.66798C3.49103 9.63682 3.54156 9.61998 3.59349 9.61998H6.29109C6.32594 9.62027 6.36031 9.62815 6.39181 9.64307C6.42331 9.658 6.45119 9.6796 6.47349 9.70638C6.49525 9.73281 6.51085 9.76375 6.51915 9.79697C6.52746 9.83017 6.52825 9.86482 6.52149 9.89838C6.39528 10.7598 6.33112 11.6293 6.32949 12.5C6.33056 13.5307 6.42698 14.559 6.61749 15.572ZM9.43029 7.69998C9.39057 7.70043 9.35136 7.69103 9.31617 7.67259C9.28099 7.65416 9.25093 7.62729 9.22869 7.59438C9.20748 7.5597 9.19625 7.51984 9.19625 7.47918C9.19625 7.43853 9.20748 7.39867 9.22869 7.36398C9.88806 5.6875 11.0059 4.23037 12.4543 3.15918C12.4954 3.13152 12.5439 3.11676 12.5935 3.11676C12.6431 3.11676 12.6916 3.13152 12.7327 3.15918C14.1811 4.23037 15.2989 5.6875 15.9582 7.36398C15.9748 7.40016 15.9832 7.43944 15.9832 7.47918C15.9832 7.51893 15.9748 7.5582 15.9582 7.59438C15.932 7.63251 15.8956 7.66258 15.8533 7.68123C15.8109 7.69989 15.7641 7.70638 15.7182 7.69998H9.43029ZM20.6431 7.32558C20.667 7.36279 20.6798 7.40612 20.6798 7.45038C20.6798 7.49465 20.667 7.53797 20.6431 7.57518C20.6232 7.61376 20.5928 7.64594 20.5555 7.66802C20.5181 7.6901 20.4752 7.70118 20.4318 7.69998H18.2718C18.2215 7.69921 18.1725 7.68322 18.1314 7.65409C18.0903 7.62496 18.0589 7.58406 18.0414 7.53678C17.6595 6.34399 17.0962 5.21717 16.3711 4.19598C16.3405 4.15238 16.3241 4.10042 16.3241 4.04718C16.3241 3.99393 16.3405 3.94198 16.3711 3.89838C16.406 3.85824 16.4531 3.83081 16.5052 3.82038C16.5574 3.80996 16.6115 3.81714 16.659 3.84078C18.2874 4.60609 19.6679 5.8136 20.6431 7.32558ZM8.47989 3.85998C8.52782 3.8379 8.58151 3.83159 8.63326 3.84193C8.685 3.85228 8.73214 3.87877 8.76789 3.91758C8.79845 3.96118 8.81485 4.01313 8.81485 4.06638C8.81485 4.11962 8.79845 4.17158 8.76789 4.21518C8.05093 5.23431 7.48808 6.35353 7.09749 7.53678C7.08179 7.5833 7.05221 7.62389 7.01273 7.65308C6.97324 7.68226 6.92576 7.69863 6.87669 7.69998H4.69749C4.65452 7.69912 4.6125 7.68719 4.5755 7.66532C4.53849 7.64346 4.50777 7.6124 4.48629 7.57518C4.46528 7.53694 4.45426 7.49401 4.45426 7.45038C4.45426 7.40675 4.46528 7.36382 4.48629 7.32558C5.47033 5.82237 6.85304 4.62245 8.47989 3.85998ZM4.83189 18.164C4.80671 18.1272 4.79324 18.0838 4.79324 18.0392C4.79324 17.9947 4.80671 17.9511 4.83189 17.9144C4.8504 17.874 4.88018 17.8398 4.91764 17.816C4.95511 17.7921 4.99868 17.7796 5.04309 17.78H7.03029C7.07854 17.7792 7.12581 17.7936 7.16543 17.8212C7.20505 17.8487 7.23501 17.8881 7.25109 17.9336C7.63213 18.9542 8.14184 19.922 8.76789 20.8136C8.80235 20.8536 8.8213 20.9047 8.8213 20.9576C8.8213 21.0104 8.80235 21.0615 8.76789 21.1016C8.73539 21.1448 8.68874 21.1752 8.63609 21.1875C8.58344 21.1998 8.52815 21.1932 8.47989 21.1688C7.03509 20.4827 5.78201 19.4506 4.83189 18.164Z" fill="#8E88AB"/>
</g>
<defs>
<clipPath id="clip0_2_37">
<rect width="24" height="24" fill="white" transform="translate(0.453125 0.5)"/>
</clipPath>
</defs>
</svg>
