<svg width="40" height="40" viewBox="0 0 40 40" fill="none" xmlns="http://www.w3.org/2000/svg">
<g clip-path="url(#clip0_2_57)">
<path d="M19.9834 3.33331C10.7834 3.33331 3.33337 10.8 3.33337 20C3.33337 29.2 10.7834 36.6666 19.9834 36.6666C29.2 36.6666 36.6667 29.2 36.6667 20C36.6667 10.8 29.2 3.33331 19.9834 3.33331ZM20 33.3333C12.6334 33.3333 6.66671 27.3666 6.66671 20C6.66671 12.6333 12.6334 6.66665 20 6.66665C27.3667 6.66665 33.3334 12.6333 33.3334 20C33.3334 27.3666 27.3667 33.3333 20 33.3333ZM25.8334 18.3333C27.2167 18.3333 28.3334 17.2166 28.3334 15.8333C28.3334 14.45 27.2167 13.3333 25.8334 13.3333C24.45 13.3333 23.3334 14.45 23.3334 15.8333C23.3334 17.2166 24.45 18.3333 25.8334 18.3333ZM14.1667 18.3333C15.55 18.3333 16.6667 17.2166 16.6667 15.8333C16.6667 14.45 15.55 13.3333 14.1667 13.3333C12.7834 13.3333 11.6667 14.45 11.6667 15.8333C11.6667 17.2166 12.7834 18.3333 14.1667 18.3333ZM20 29.1666C23.8834 29.1666 27.1834 26.7333 28.5167 23.3333H11.4834C12.8167 26.7333 16.1167 29.1666 20 29.1666Z" fill="#8E88AB"/>
</g>
<defs>
<clipPath id="clip0_2_57">
<rect width="40" height="40" fill="white"/>
</clipPath>
</defs>
</svg>
