<svg width="74" height="64" viewBox="0 0 74 64" fill="none" xmlns="http://www.w3.org/2000/svg">
<path d="M39.6444 59H34.1444V54H29.6444V49H24.6444V44.5H19.6444V39.5H14.6444V34H9.64444V29.237H4.64526V9.5H9.64444V4.5H29.6444V9.5H35.1444V14.5H39.6444V9.5H44.1444V4.5H64.1444V9.5H69.1444V29.5H64.6444V34H59.1444V39.5H54.6444V44H49.6444V49H44.6444V54.5H39.6444V59Z" fill="#775AF0"/>
<path fill-rule="evenodd" clip-rule="evenodd" d="M9.98148 2.31909V4.63818H19.8177H29.6539V2.31909V0H19.8177H9.98148V2.31909ZM44.844 2.31909V4.63818H54.369H63.8939V2.31909V0H54.369H44.844V2.31909ZM5.12563 7.27066V9.65242H7.42905H9.73247V7.27066V4.88889H7.42905H5.12563V7.27066ZM29.9029 7.27066V9.65242H32.2064H34.5098V7.27066V4.88889H32.2064H29.9029V7.27066ZM39.8637 7.27066V9.65242H42.2293H44.595V7.27066V4.88889H42.2293H39.8637V7.27066ZM64.2675 7.27066V9.65242H66.5709H68.8743V7.27066V4.88889H66.5709H64.2675V7.27066ZM0.145264 19.4929V29.0826H2.44868H4.7521V19.4929V9.90313H2.44868H0.145264V19.4929ZM34.8833 12.2222V14.5413H37.249H39.6147V12.2222V9.90313H37.249H34.8833V12.2222ZM69.1233 19.4929V29.0826H71.489H73.8547V19.4929V9.90313H71.489H69.1233V19.4929ZM5.12563 31.7778V34.0969H7.42905H9.73247V31.7778V29.4587H7.42905H5.12563V31.7778ZM64.2675 31.7778V34.0969H66.5709H68.8743V31.7778V29.4587H66.5709H64.2675V31.7778ZM9.98148 36.6623V38.9858H12.3472H14.7128V36.6766V34.3674L12.3472 34.3531L9.98148 34.3387V36.6623ZM59.4116 36.6667V38.9858H61.6528H63.8939V36.6667V34.3476H61.6528H59.4116V36.6667ZM14.9618 41.7436V44.1254H17.2653H19.5687V41.7436V39.3618H17.2653H14.9618V41.7436ZM54.3067 41.7436V44.1254H56.6102H58.9136V41.7436V39.3618H56.6102H54.3067V41.7436ZM19.9422 46.6952V49.0143H22.2456H24.5491V46.6952V44.3761H22.2456H19.9422V46.6952ZM49.4509 46.6952V49.0143H51.7543H54.0577V46.6952V44.3761H51.7543H49.4509V46.6952ZM24.7981 51.7094V54.1539H27.0964H29.3947L29.4309 51.7093L29.4672 49.2647L27.1326 49.2648L24.7981 49.265V51.7094ZM44.4705 51.7094V54.1539H46.7739H49.0774V51.7094V49.265H46.7739H44.4705V51.7094ZM29.6539 56.5983V58.9174H32.0196H34.3853V56.5983V54.2792H32.0196H29.6539V56.5983ZM39.4901 56.5983V58.9174H41.7936H44.097V56.5983V54.2792H41.7936H39.4901V56.5983ZM34.6343 61.5499V63.9316H36.9377H39.2411V61.5499V59.1681H36.9377H34.6343V61.5499Z" fill="black"/>
<path d="M25.3757 14.9658H20.3757V19.9658H15.3757V24.9658H10.3757V14.9658H15.3757V9.96582H25.3757V14.9658Z" fill="white"/>
</svg>
