<svg width="172" height="54" viewBox="0 0 172 54" fill="none" xmlns="http://www.w3.org/2000/svg">
<path d="M32.6456 18.4375H30.157C30.1115 18.1155 30.0187 17.8295 29.8786 17.5795C29.7384 17.3258 29.5585 17.1098 29.3388 16.9318C29.1191 16.7538 28.8653 16.6174 28.5774 16.5227C28.2933 16.428 27.9846 16.3807 27.6513 16.3807C27.049 16.3807 26.5244 16.5303 26.0774 16.8295C25.6304 17.125 25.2839 17.5568 25.0376 18.125C24.7914 18.6894 24.6683 19.375 24.6683 20.1818C24.6683 21.0114 24.7914 21.7083 25.0376 22.2727C25.2876 22.8371 25.6361 23.2633 26.0831 23.5511C26.5301 23.839 27.0471 23.983 27.6342 23.983C27.9638 23.983 28.2687 23.9394 28.549 23.8523C28.8331 23.7652 29.085 23.6383 29.3047 23.4716C29.5244 23.3011 29.7062 23.0947 29.8501 22.8523C29.9979 22.6098 30.1001 22.3333 30.157 22.0227L32.6456 22.0341C32.5812 22.5682 32.4202 23.0833 32.1626 23.5795C31.9089 24.072 31.5661 24.5133 31.1342 24.9034C30.7062 25.2898 30.1948 25.5966 29.6001 25.8239C29.0092 26.0473 28.3407 26.1591 27.5945 26.1591C26.5566 26.1591 25.6286 25.9242 24.8104 25.4545C23.996 24.9848 23.352 24.3049 22.8786 23.4148C22.4089 22.5246 22.174 21.447 22.174 20.1818C22.174 18.9129 22.4126 17.8333 22.8899 16.9432C23.3672 16.053 24.0149 15.375 24.8331 14.9091C25.6513 14.4394 26.5717 14.2045 27.5945 14.2045C28.2687 14.2045 28.8937 14.2992 29.4695 14.4886C30.049 14.678 30.5623 14.9545 31.0092 15.3182C31.4562 15.678 31.8198 16.1193 32.1001 16.642C32.3842 17.1648 32.5661 17.7633 32.6456 18.4375ZM38.3075 26.1705C37.425 26.1705 36.6617 25.983 36.0178 25.608C35.3776 25.2292 34.8833 24.7027 34.5348 24.0284C34.1863 23.3504 34.0121 22.5644 34.0121 21.6705C34.0121 20.7689 34.1863 19.9811 34.5348 19.3068C34.8833 18.6288 35.3776 18.1023 36.0178 17.7273C36.6617 17.3485 37.425 17.1591 38.3075 17.1591C39.1901 17.1591 39.9515 17.3485 40.5916 17.7273C41.2356 18.1023 41.7318 18.6288 42.0803 19.3068C42.4287 19.9811 42.603 20.7689 42.603 21.6705C42.603 22.5644 42.4287 23.3504 42.0803 24.0284C41.7318 24.7027 41.2356 25.2292 40.5916 25.608C39.9515 25.983 39.1901 26.1705 38.3075 26.1705ZM38.3189 24.2955C38.7204 24.2955 39.0556 24.1818 39.3246 23.9545C39.5935 23.7235 39.7962 23.4091 39.9325 23.0114C40.0727 22.6136 40.1428 22.161 40.1428 21.6534C40.1428 21.1458 40.0727 20.6932 39.9325 20.2955C39.7962 19.8977 39.5935 19.5833 39.3246 19.3523C39.0556 19.1212 38.7204 19.0057 38.3189 19.0057C37.9136 19.0057 37.5727 19.1212 37.2962 19.3523C37.0234 19.5833 36.817 19.8977 36.6768 20.2955C36.5405 20.6932 36.4723 21.1458 36.4723 21.6534C36.4723 22.161 36.5405 22.6136 36.6768 23.0114C36.817 23.4091 37.0234 23.7235 37.2962 23.9545C37.5727 24.1818 37.9136 24.2955 38.3189 24.2955ZM46.5973 20.9545V26H44.1768V17.2727H46.4837V18.8125H46.5859C46.7791 18.3049 47.103 17.9034 47.5575 17.608C48.0121 17.3087 48.5632 17.1591 49.2109 17.1591C49.817 17.1591 50.3454 17.2917 50.7962 17.5568C51.2469 17.822 51.5973 18.2008 51.8473 18.6932C52.0973 19.1818 52.2223 19.7652 52.2223 20.4432V26H49.8018V20.875C49.8056 20.3409 49.6693 19.9242 49.3928 19.625C49.1162 19.322 48.7356 19.1705 48.2507 19.1705C47.925 19.1705 47.6371 19.2405 47.3871 19.3807C47.1409 19.5208 46.9477 19.7254 46.8075 19.9943C46.6712 20.2595 46.6011 20.5795 46.5973 20.9545ZM56.5504 20.9545V26H54.13V17.2727H56.4368V18.8125H56.5391C56.7322 18.3049 57.0561 17.9034 57.5107 17.608C57.9652 17.3087 58.5163 17.1591 59.1641 17.1591C59.7701 17.1591 60.2985 17.2917 60.7493 17.5568C61.2 17.822 61.5504 18.2008 61.8004 18.6932C62.0504 19.1818 62.1754 19.7652 62.1754 20.4432V26H59.755V20.875C59.7588 20.3409 59.6224 19.9242 59.3459 19.625C59.0694 19.322 58.6887 19.1705 58.2038 19.1705C57.8781 19.1705 57.5902 19.2405 57.3402 19.3807C57.094 19.5208 56.9008 19.7254 56.7607 19.9943C56.6243 20.2595 56.5542 20.5795 56.5504 20.9545ZM68.0604 26.1705C67.1626 26.1705 66.3899 25.9886 65.7422 25.625C65.0982 25.2576 64.602 24.7386 64.2536 24.0682C63.9051 23.3939 63.7308 22.5966 63.7308 21.6761C63.7308 20.7784 63.9051 19.9905 64.2536 19.3125C64.602 18.6345 65.0926 18.1061 65.7251 17.7273C66.3615 17.3485 67.1077 17.1591 67.9638 17.1591C68.5395 17.1591 69.0755 17.2519 69.5717 17.4375C70.0717 17.6193 70.5073 17.8939 70.8786 18.2614C71.2536 18.6288 71.5452 19.0909 71.7536 19.6477C71.9619 20.2008 72.0661 20.8485 72.0661 21.5909V22.2557H64.6967V20.7557H69.7876C69.7876 20.4072 69.7119 20.0985 69.5604 19.8295C69.4089 19.5606 69.1986 19.3504 68.9297 19.1989C68.6645 19.0436 68.3558 18.9659 68.0036 18.9659C67.6361 18.9659 67.3104 19.0511 67.0263 19.2216C66.746 19.3883 66.5263 19.6136 66.3672 19.8977C66.2081 20.178 66.1267 20.4905 66.1229 20.8352V22.2614C66.1229 22.6932 66.2024 23.0663 66.3615 23.3807C66.5244 23.6951 66.7536 23.9375 67.049 24.108C67.3445 24.2784 67.6948 24.3636 68.1001 24.3636C68.3691 24.3636 68.6153 24.3258 68.8388 24.25C69.0623 24.1742 69.2536 24.0606 69.4126 23.9091C69.5717 23.7576 69.6929 23.572 69.7763 23.3523L72.0149 23.5C71.9013 24.0379 71.6683 24.5076 71.3161 24.9091C70.9676 25.3068 70.5168 25.6174 69.9638 25.8409C69.4145 26.0606 68.7801 26.1705 68.0604 26.1705ZM77.5888 26.1705C76.6948 26.1705 75.9259 25.9811 75.282 25.6023C74.6418 25.2197 74.1494 24.6894 73.8047 24.0114C73.4638 23.3333 73.2933 22.553 73.2933 21.6705C73.2933 20.7765 73.4657 19.9924 73.8104 19.3182C74.1589 18.6402 74.6532 18.1117 75.2933 17.733C75.9335 17.3504 76.6948 17.1591 77.5774 17.1591C78.3388 17.1591 79.0054 17.2973 79.5774 17.5739C80.1494 17.8504 80.602 18.2386 80.9354 18.7386C81.2687 19.2386 81.4524 19.8258 81.4865 20.5H79.2024C79.138 20.0644 78.9676 19.714 78.6911 19.4489C78.4183 19.1799 78.0604 19.0455 77.6172 19.0455C77.2422 19.0455 76.9145 19.1477 76.6342 19.3523C76.3577 19.553 76.1418 19.8466 75.9865 20.233C75.8312 20.6193 75.7536 21.0871 75.7536 21.6364C75.7536 22.1932 75.8293 22.6667 75.9808 23.0568C76.1361 23.447 76.3539 23.7443 76.6342 23.9489C76.9145 24.1534 77.2422 24.2557 77.6172 24.2557C77.8937 24.2557 78.1418 24.1989 78.3615 24.0852C78.585 23.9716 78.7687 23.8068 78.9126 23.5909C79.0604 23.3712 79.157 23.108 79.2024 22.8011H81.4865C81.4486 23.4678 81.2668 24.0549 80.9411 24.5625C80.6191 25.0663 80.174 25.4602 79.6058 25.7443C79.0376 26.0284 78.3653 26.1705 77.5888 26.1705ZM87.6783 17.2727V19.0909H82.4226V17.2727H87.6783ZM83.6158 15.1818H86.0362V23.3182C86.0362 23.5417 86.0703 23.7159 86.1385 23.8409C86.2067 23.9621 86.3014 24.0473 86.4226 24.0966C86.5476 24.1458 86.6915 24.1705 86.8544 24.1705C86.968 24.1705 87.0817 24.161 87.1953 24.142C87.3089 24.1193 87.3961 24.1023 87.4567 24.0909L87.8374 25.892C87.7161 25.9299 87.5457 25.9735 87.326 26.0227C87.1063 26.0758 86.8393 26.108 86.5249 26.1193C85.9415 26.142 85.4302 26.0644 84.9908 25.8864C84.5552 25.7083 84.2161 25.4318 83.9737 25.0568C83.7313 24.6818 83.612 24.2083 83.6158 23.6364V15.1818ZM97.1286 26H93.0036V14.3636H97.1626C98.3331 14.3636 99.3407 14.5966 100.185 15.0625C101.03 15.5246 101.68 16.1894 102.134 17.0568C102.593 17.9242 102.822 18.9621 102.822 20.1705C102.822 21.3826 102.593 22.4242 102.134 23.2955C101.68 24.1667 101.026 24.8352 100.174 25.3011C99.3255 25.767 98.3104 26 97.1286 26ZM95.4638 23.892H97.0263C97.7536 23.892 98.3653 23.7633 98.8615 23.5057C99.3615 23.2443 99.7365 22.8409 99.9865 22.2955C100.24 21.7462 100.367 21.0379 100.367 20.1705C100.367 19.3106 100.24 18.608 99.9865 18.0625C99.7365 17.517 99.3634 17.1155 98.8672 16.858C98.371 16.6004 97.7592 16.4716 97.032 16.4716H95.4638V23.892ZM108.542 26.1705C107.659 26.1705 106.896 25.983 106.252 25.608C105.612 25.2292 105.118 24.7027 104.769 24.0284C104.421 23.3504 104.246 22.5644 104.246 21.6705C104.246 20.7689 104.421 19.9811 104.769 19.3068C105.118 18.6288 105.612 18.1023 106.252 17.7273C106.896 17.3485 107.659 17.1591 108.542 17.1591C109.424 17.1591 110.186 17.3485 110.826 17.7273C111.47 18.1023 111.966 18.6288 112.315 19.3068C112.663 19.9811 112.837 20.7689 112.837 21.6705C112.837 22.5644 112.663 23.3504 112.315 24.0284C111.966 24.7027 111.47 25.2292 110.826 25.608C110.186 25.983 109.424 26.1705 108.542 26.1705ZM108.553 24.2955C108.955 24.2955 109.29 24.1818 109.559 23.9545C109.828 23.7235 110.031 23.4091 110.167 23.0114C110.307 22.6136 110.377 22.161 110.377 21.6534C110.377 21.1458 110.307 20.6932 110.167 20.2955C110.031 19.8977 109.828 19.5833 109.559 19.3523C109.29 19.1212 108.955 19.0057 108.553 19.0057C108.148 19.0057 107.807 19.1212 107.531 19.3523C107.258 19.5833 107.051 19.8977 106.911 20.2955C106.775 20.6932 106.707 21.1458 106.707 21.6534C106.707 22.161 106.775 22.6136 106.911 23.0114C107.051 23.4091 107.258 23.7235 107.531 23.9545C107.807 24.1818 108.148 24.2955 108.553 24.2955ZM114.411 26V17.2727H116.718V18.8125H116.82C117.002 18.3011 117.305 17.8977 117.729 17.6023C118.154 17.3068 118.661 17.1591 119.252 17.1591C119.851 17.1591 120.36 17.3087 120.781 17.608C121.201 17.9034 121.481 18.3049 121.621 18.8125H121.712C121.89 18.3125 122.212 17.9129 122.678 17.6136C123.148 17.3106 123.703 17.1591 124.343 17.1591C125.157 17.1591 125.818 17.4186 126.326 17.9375C126.837 18.4527 127.093 19.1837 127.093 20.1307V26H124.678V20.608C124.678 20.1231 124.549 19.7595 124.292 19.517C124.034 19.2746 123.712 19.1534 123.326 19.1534C122.887 19.1534 122.544 19.2936 122.298 19.5739C122.051 19.8504 121.928 20.2159 121.928 20.6705V26H119.582V20.5568C119.582 20.1288 119.459 19.7879 119.212 19.5341C118.97 19.2803 118.65 19.1534 118.252 19.1534C117.983 19.1534 117.741 19.2216 117.525 19.358C117.313 19.4905 117.144 19.678 117.019 19.9205C116.894 20.1591 116.832 20.4394 116.832 20.7614V26H114.411ZM131.494 26.1648C130.937 26.1648 130.441 26.0682 130.005 25.875C129.569 25.678 129.225 25.3883 128.971 25.0057C128.721 24.6193 128.596 24.1383 128.596 23.5625C128.596 23.0777 128.685 22.6705 128.863 22.3409C129.041 22.0114 129.283 21.7462 129.59 21.5455C129.897 21.3447 130.246 21.1932 130.636 21.0909C131.03 20.9886 131.442 20.9167 131.874 20.875C132.382 20.822 132.791 20.7727 133.102 20.7273C133.412 20.678 133.638 20.6061 133.778 20.5114C133.918 20.4167 133.988 20.2765 133.988 20.0909V20.0568C133.988 19.697 133.874 19.4186 133.647 19.2216C133.424 19.0246 133.105 18.9261 132.692 18.9261C132.257 18.9261 131.91 19.0227 131.653 19.2159C131.395 19.4053 131.225 19.6439 131.141 19.9318L128.903 19.75C129.016 19.2197 129.24 18.7614 129.573 18.375C129.906 17.9848 130.336 17.6856 130.863 17.4773C131.393 17.2652 132.007 17.1591 132.704 17.1591C133.189 17.1591 133.653 17.2159 134.096 17.3295C134.543 17.4432 134.939 17.6193 135.283 17.858C135.632 18.0966 135.906 18.4034 136.107 18.7784C136.308 19.1496 136.408 19.5947 136.408 20.1136V26H134.113V24.7898H134.045C133.905 25.0625 133.717 25.303 133.482 25.5114C133.247 25.7159 132.965 25.8769 132.636 25.9943C132.306 26.108 131.925 26.1648 131.494 26.1648ZM132.187 24.4943C132.543 24.4943 132.857 24.4242 133.13 24.2841C133.403 24.1402 133.617 23.947 133.772 23.7045C133.927 23.4621 134.005 23.1875 134.005 22.8807V21.9545C133.929 22.0038 133.825 22.0492 133.692 22.0909C133.564 22.1288 133.418 22.1648 133.255 22.1989C133.092 22.2292 132.929 22.2576 132.766 22.2841C132.603 22.3068 132.456 22.3277 132.323 22.3466C132.039 22.3883 131.791 22.4545 131.579 22.5455C131.367 22.6364 131.202 22.7595 131.085 22.9148C130.967 23.0663 130.908 23.2557 130.908 23.483C130.908 23.8125 131.028 24.0644 131.266 24.2386C131.509 24.4091 131.816 24.4943 132.187 24.4943ZM138.286 26V17.2727H140.707V26H138.286ZM139.502 16.1477C139.142 16.1477 138.834 16.0284 138.576 15.7898C138.322 15.5473 138.195 15.2576 138.195 14.9205C138.195 14.5871 138.322 14.3011 138.576 14.0625C138.834 13.8201 139.142 13.6989 139.502 13.6989C139.862 13.6989 140.169 13.8201 140.423 14.0625C140.68 14.3011 140.809 14.5871 140.809 14.9205C140.809 15.2576 140.68 15.5473 140.423 15.7898C140.169 16.0284 139.862 16.1477 139.502 16.1477ZM145.066 20.9545V26H142.646V17.2727H144.952V18.8125H145.055C145.248 18.3049 145.572 17.9034 146.026 17.608C146.481 17.3087 147.032 17.1591 147.68 17.1591C148.286 17.1591 148.814 17.2917 149.265 17.5568C149.716 17.822 150.066 18.2008 150.316 18.6932C150.566 19.1818 150.691 19.7652 150.691 20.4432V26H148.271V20.875C148.274 20.3409 148.138 19.9242 147.862 19.625C147.585 19.322 147.204 19.1705 146.719 19.1705C146.394 19.1705 146.106 19.2405 145.856 19.3807C145.61 19.5208 145.416 19.7254 145.276 19.9943C145.14 20.2595 145.07 20.5795 145.066 20.9545Z" fill="#775AF0"/>
<path d="M0.5 0.5H154.811L171.5 15.2256V39.5H17.1937L0.5 24.2793V0.5ZM171.5 0.5V7.87731L163.303 0.5H171.5Z" stroke="#775AF0" stroke-opacity="0.5"/>
</svg>
