<svg width="155" height="48" viewBox="0 0 155 48" fill="none" xmlns="http://www.w3.org/2000/svg">
<g clip-path="url(#clip0_20_2)">
<path d="M37.4512 7.76172V20.5115L0 35.5767L37.4512 7.76172Z" fill="#00C9FF"/>
<path d="M30.4302 7.20837V29.2026C30.4302 32.2762 29.1971 35.2239 27.0021 37.3973C24.8071 39.5707 21.8301 40.7917 18.726 40.7917C15.6218 40.7917 12.6448 39.5707 10.4498 37.3973C8.25488 35.2239 7.02176 32.2762 7.02176 29.2026V19.9348L14.0431 16.1087V29.2026C13.9774 29.774 14.0343 30.3528 14.2101 30.901C14.3861 31.4492 14.6769 31.9543 15.0637 32.3834C15.4505 32.8125 15.9244 33.1558 16.4545 33.3909C16.9847 33.626 17.559 33.7476 18.1399 33.7476C18.7207 33.7476 19.2951 33.626 19.8252 33.3909C20.3553 33.1558 20.8293 32.8125 21.2161 32.3834C21.6029 31.9543 21.8938 31.4492 22.0696 30.901C22.2455 30.3528 22.3024 29.774 22.2366 29.2026V11.6469L30.4302 7.20837Z" fill="#775AF0"/>
<path d="M54.54 9.21875V14.9054C54.54 16.8126 53.4444 17.8216 52.0778 17.8216C50.9646 17.8216 50.0928 17.1801 50.0928 15.4361V9.21875H48.0547V15.5819C48.0547 18.0258 49.3742 19.6006 51.5418 19.6006C52.155 19.6067 52.7583 19.447 53.2867 19.1387C53.8151 18.8303 54.2484 18.385 54.54 17.8508H54.5754V19.3031H56.5781V9.21875H54.54Z" fill="#775AF0"/>
<path d="M64.4853 27.3882V33.0749C64.4853 34.9821 63.3897 35.991 62.0231 35.991C60.9099 35.991 60.0381 35.3495 60.0381 33.6056V27.3882H58V33.7514C58 36.1952 59.3195 37.77 61.4871 37.77C62.1004 37.7761 62.7036 37.6165 63.232 37.3081C63.7604 36.9997 64.1937 36.5545 64.4853 36.0202H64.5207V37.4725H66.5235V27.3882H64.4853Z" fill="#775AF0"/>
<path d="M63.4333 8.92674C62.8059 8.91649 62.1872 9.07347 61.642 9.38132C61.0969 9.68917 60.6455 10.1365 60.335 10.6765H60.2996V9.2184H58.2969V19.3086H60.335V13.6219C60.335 11.7147 61.4659 10.7056 62.8914 10.7056C64.0695 10.7056 64.9884 11.3472 64.9884 13.0912V19.3086H67.0265V12.9278C67.0265 10.5015 65.6775 8.92674 63.4333 8.92674Z" fill="#775AF0"/>
<path d="M73.082 13.1976H72.6933C70.9261 13.1976 70.5786 12.8885 70.5786 12.1011C70.5786 11.3137 71.2855 10.6663 72.599 10.6663C72.8506 10.6467 73.1036 10.6795 73.3416 10.7626C73.5797 10.8456 73.7974 10.977 73.9811 11.1484C74.1648 11.3198 74.3101 11.5274 74.4079 11.7577C74.5057 11.9881 74.5537 12.2362 74.5487 12.4861H76.6752C76.5279 10.4505 75.0082 8.92822 72.599 8.92822C69.8423 8.92822 68.4758 10.538 68.4758 12.1011C68.4758 13.915 69.9955 14.959 71.9039 14.959H72.4576C74.2248 14.959 74.7549 15.3673 74.7549 16.3355C74.7549 17.1987 73.8655 17.8578 72.5343 17.8578C71.9974 17.8864 71.4708 17.704 71.0693 17.3501C70.6676 16.9961 70.4235 16.4994 70.3901 15.968H68.2637C68.3933 18.0619 70.131 19.6016 72.5048 19.6016C75.3557 19.6016 76.8401 17.9685 76.8401 16.3355C76.8695 14.4633 75.3793 13.1976 73.082 13.1976Z" fill="#775AF0"/>
<path d="M83.2723 10.9811V9.23131H80.5097V7.83154H78.4776V9.21968H76.8105V10.9694H78.4776V16.5978C78.4776 18.4875 79.479 19.2981 81.3697 19.2981H83.2783V17.5484H81.5523C81.4104 17.5567 81.2684 17.5344 81.1361 17.4831C81.0037 17.4318 80.8841 17.3527 80.7856 17.2513C80.6871 17.1498 80.6119 17.0284 80.5653 16.8955C80.5187 16.7625 80.5018 16.6212 80.5156 16.4811V10.9811H83.2723Z" fill="#775AF0"/>
<path d="M89.0152 8.92822C86.158 8.92822 83.9023 10.8354 83.9023 14.265C83.9023 17.6944 86.158 19.6016 89.0152 19.6016C91.8724 19.6016 94.1285 17.6769 94.1285 14.265C94.1285 10.853 91.8663 8.92822 89.0152 8.92822ZM89.0152 17.8578C87.3481 17.8578 86.0111 16.6912 86.0111 14.265C86.0111 11.8386 87.3481 10.6488 89.0152 10.6663C90.6823 10.6838 92.0136 11.8036 92.0136 14.265C92.0136 16.7263 90.6823 17.8402 89.0152 17.8578Z" fill="#775AF0"/>
<path d="M101.021 8.92733C100.328 8.91149 99.6427 9.07337 99.0321 9.39732C98.4208 9.72136 97.905 10.1964 97.5338 10.7762H97.4873C97.5226 10.3737 97.5226 10.0822 97.5226 9.71473V9.2189H95.4844V21.0939H97.5226V18.8658C97.5226 18.4809 97.5226 18.1718 97.4873 17.746H97.5226C97.886 18.3357 98.4018 18.8186 99.0167 19.1446C99.6323 19.4707 100.324 19.6282 101.021 19.6007C103.519 19.6007 105.733 17.711 105.733 14.2057C105.733 10.7004 103.525 8.92733 101.021 8.92733ZM100.503 17.8568C98.6119 17.8568 97.5166 16.247 97.5166 14.1882C97.5166 12.246 98.6119 10.6887 100.503 10.6887C102.394 10.6887 103.578 12.106 103.578 14.229C103.578 16.3521 102.359 17.8744 100.509 17.8568H100.503Z" fill="#775AF0"/>
<path d="M112.655 8.92733C111.961 8.91149 111.276 9.07337 110.665 9.39732C110.054 9.72136 109.538 10.1964 109.167 10.7762H109.132C109.167 10.3737 109.167 10.0822 109.167 9.71473V9.2189H107.129V21.0939H109.167V18.8658C109.167 18.4809 109.167 18.1718 109.132 17.746H109.167C109.53 18.3339 110.044 18.8156 110.657 19.1416C111.27 19.4676 111.959 19.626 112.655 19.6007C115.152 19.6007 117.337 17.711 117.337 14.2057C117.337 10.7004 115.158 8.92733 112.655 8.92733ZM112.136 17.8568C110.245 17.8568 109.149 16.247 109.149 14.1882C109.149 12.246 110.245 10.6887 112.136 10.6887C114.026 10.6887 115.21 12.106 115.21 14.229C115.21 16.3521 113.98 17.8744 112.136 17.8568Z" fill="#775AF0"/>
<path d="M127.823 17.5486C127.546 17.5486 127.417 17.3794 127.417 17.0529V12.6144C127.417 10.4855 126.38 8.92822 123.323 8.92822C120.377 8.92822 119.005 10.3922 118.858 12.4861H120.895C121.025 11.3195 121.932 10.6663 123.323 10.6663C124.501 10.6663 125.325 11.1854 125.325 11.9902C125.325 12.6493 124.86 13.0517 123.34 13.0517H122.527C120.101 13.0517 118.469 14.0258 118.469 16.248C118.469 18.5809 120.189 19.6367 122.209 19.6367C123.711 19.6367 124.99 18.9776 125.49 17.5661C125.544 18.5926 126.233 19.3158 127.528 19.3158H128.706V17.5661L127.823 17.5486ZM125.378 14.6324C125.378 16.907 124.136 17.8927 122.545 17.8927C121.155 17.8927 120.601 17.0879 120.601 16.2655C120.601 15.4431 121.079 14.8307 122.562 14.8307H122.857C124.283 14.8307 125.172 14.3349 125.361 13.4717L125.378 14.6324Z" fill="#775AF0"/>
<path d="M135.473 8.92793C134.781 8.91192 134.096 9.07381 133.485 9.39784C132.876 9.72188 132.361 10.197 131.991 10.7768H131.95C131.984 10.4239 131.997 10.0696 131.991 9.71525V6H129.953V19.3097H131.991V18.8664C131.997 18.4927 131.984 18.1189 131.95 17.7466H131.991C132.353 18.334 132.866 18.8155 133.478 19.1415C134.09 19.4675 134.778 19.6262 135.473 19.6013C137.976 19.6013 140.185 17.7116 140.185 14.2063C140.185 10.701 137.976 8.92793 135.473 8.92793ZM134.954 17.8574C133.063 17.8574 131.973 16.2476 131.973 14.1888C131.973 12.2466 133.063 10.6893 134.954 10.6893C136.845 10.6893 138.029 12.1066 138.029 14.2296C138.029 16.3526 136.804 17.8749 134.954 17.8574Z" fill="#775AF0"/>
<path d="M73.5197 27.3161C72.8274 27.3001 72.1428 27.462 71.5323 27.786C70.9226 28.1101 70.4077 28.5851 70.0383 29.165H69.9969C70.0305 28.8121 70.0443 28.4578 70.0383 28.1034V24.3882H68V37.6978H70.0383V37.2546C70.0443 36.8809 70.0305 36.5071 69.9969 36.1348H70.0383C70.3999 36.7222 70.9131 37.2037 71.5245 37.5297C72.1368 37.8557 72.8248 38.0144 73.5197 37.9895C76.023 37.9895 78.2317 36.0998 78.2317 32.5945C78.2317 29.0891 76.023 27.3161 73.5197 27.3161ZM73.0013 36.2456C71.1103 36.2456 70.0202 34.6358 70.0202 32.577C70.0202 30.6348 71.1103 29.0775 73.0013 29.0775C74.8915 29.0775 76.0755 30.4947 76.0755 32.6178C76.0755 34.7408 74.851 36.2631 73.0013 36.2456Z" fill="#775AF0"/>
<path d="M141.457 6V19.3097H143.495V6H141.457Z" fill="#775AF0"/>
<path d="M154.999 13.3493C154.999 10.8179 152.961 8.92822 150.181 8.92822C147.236 8.92822 145.162 10.9229 145.162 14.265C145.162 17.4728 147.177 19.6016 150.181 19.6016C152.643 19.6016 154.481 18.1727 154.894 16.2071H152.673C152.483 16.7079 152.14 17.1369 151.69 17.4332C151.241 17.7296 150.709 17.8781 150.169 17.8578C148.65 17.8578 147.536 16.7787 147.294 14.9824H154.987L154.999 13.3493ZM147.342 13.1801C147.425 12.4887 147.761 11.8514 148.286 11.3884C148.811 10.9253 149.489 10.6685 150.193 10.6663C150.888 10.6627 151.56 10.9198 152.073 11.386C152.585 11.8523 152.9 12.4932 152.955 13.1801H147.342Z" fill="#775AF0"/>
<path d="M88.1936 24.0947V27.7517C88.1936 28.1366 88.1936 28.4516 88.2289 28.8715H88.1936C87.8303 28.286 87.3167 27.8064 86.7051 27.4816C86.0936 27.1568 85.4059 26.9984 84.7123 27.0227C82.1913 27.0227 80 28.8716 80 32.2718C80 35.7713 82.1677 37.7019 84.7123 37.7019C85.4048 37.7155 86.089 37.552 86.6988 37.2271C87.3088 36.9021 87.8236 36.4269 88.1936 35.8472H88.2289C88.1936 36.2554 88.1936 36.5471 88.1936 36.9145V37.4103H90.2316V24.0947H88.1936ZM85.2484 35.9521C83.3752 35.9521 82.15 34.4648 82.15 32.266C82.15 30.0672 83.3752 28.7665 85.2484 28.7665C87.1215 28.7665 88.1936 30.3121 88.1936 32.266C88.1936 34.3249 87.098 35.958 85.2307 35.9755L85.2484 35.9521Z" fill="#775AF0"/>
<path d="M97.0132 27.0444C94.1564 27.0444 91.9004 28.9516 91.9004 32.3812C91.9004 35.8106 94.1564 37.7178 97.0132 37.7178C99.8701 37.7178 102.126 35.7932 102.126 32.3812C102.126 28.9691 99.8642 27.0444 97.0132 27.0444ZM97.0132 35.9739C95.3463 35.9739 94.0092 34.8074 94.0092 32.3812C94.0092 29.9548 95.3463 28.765 97.0132 28.7825C98.6803 28.8 100.011 29.949 100.011 32.3812C100.011 34.8133 98.6803 35.9564 97.0132 35.9739Z" fill="#775AF0"/>
<path d="M115.071 27.0458C114.425 27.0277 113.786 27.1877 113.227 27.508C112.667 27.8282 112.208 28.2962 111.902 28.8598H111.849L111.902 29.3438C111.717 28.6672 111.304 28.0733 110.732 27.6599C110.161 27.2465 109.464 27.0381 108.757 27.0692C108.152 27.0763 107.561 27.2477 107.048 27.5644C106.535 27.8811 106.119 28.3312 105.847 28.8655H105.811V27.3375H103.809V37.4276H105.847V31.7409C105.847 29.8338 106.936 28.8247 108.238 28.8247C109.328 28.8247 110.105 29.5363 110.105 31.2102V37.4276H112.143V31.7235C112.143 29.8163 113.274 28.8423 114.57 28.8423C115.666 28.8423 116.426 29.5538 116.426 31.2277V37.4276H118.464V31.0586C118.464 28.6206 117.144 27.0458 115.071 27.0458Z" fill="#775AF0"/>
<path d="M129.485 35.6648C129.208 35.6648 129.078 35.4956 129.078 35.169V30.7305C129.078 28.6017 128.036 27.0444 124.955 27.0444C122.01 27.0444 120.643 28.5084 120.496 30.6022H122.534C122.664 29.4649 123.571 28.7825 124.955 28.7825C126.133 28.7825 126.958 29.2957 126.958 30.1065C126.958 30.7656 126.499 31.1679 124.979 31.1679H124.16C121.733 31.1679 120.107 32.142 120.107 34.3584C120.107 36.6913 121.827 37.7529 123.847 37.7529C125.35 37.7529 126.628 37.0938 127.123 35.6823C127.181 36.7089 127.865 37.432 129.161 37.432H130.309V35.6823L129.485 35.6648ZM127.04 32.7486C127.04 35.0232 125.798 36.0089 124.201 36.0089C122.816 36.0089 122.258 35.2041 122.258 34.3758C122.258 33.5476 122.74 32.9469 124.224 32.9469H124.519C125.945 32.9469 126.834 32.4511 127.017 31.5879L127.04 32.7486Z" fill="#775AF0"/>
<path d="M131.576 27.3369V37.4271H133.614V27.3369H131.576Z" fill="#775AF0"/>
<path d="M141.025 27.0449C140.398 27.0344 139.78 27.1914 139.236 27.4993C138.692 27.8073 138.242 28.2547 137.933 28.7946H137.891V27.3365H135.895V37.4267H137.933V31.7401C137.933 29.8328 139.063 28.8238 140.489 28.8238C141.667 28.8238 142.58 29.4653 142.58 31.2093V37.4267H144.618V31.0576C144.618 28.6196 143.246 27.0449 141.025 27.0449Z" fill="#775AF0"/>
<path d="M151.044 31.3152H150.656C148.889 31.3152 148.547 31.006 148.547 30.2186C148.547 29.4312 149.248 28.7605 150.567 28.7605C150.819 28.7409 151.072 28.7737 151.31 28.8567C151.547 28.9398 151.764 29.0714 151.948 29.2428C152.131 29.4144 152.276 29.622 152.373 29.8523C152.469 30.0828 152.517 30.3307 152.512 30.5802H154.638C154.491 28.5447 152.971 27.0225 150.567 27.0225C147.805 27.0225 146.444 28.6322 146.444 30.1953C146.444 32.0092 147.964 33.0533 149.872 33.0533H150.426C152.193 33.0533 152.723 33.4557 152.723 34.4297C152.723 35.2929 151.834 35.952 150.503 35.952C149.971 35.9729 149.452 35.7868 149.057 35.4336C148.662 35.0805 148.421 34.5883 148.388 34.0622H146.262C146.391 36.1561 148.129 37.6958 150.503 37.6958C153.354 37.6958 154.838 36.0628 154.838 34.4297C154.826 32.5808 153.342 31.3152 151.044 31.3152Z" fill="#775AF0"/>
<path d="M52.7826 31.3152H52.3942C50.6272 31.3152 50.2854 31.006 50.2854 30.2186C50.2854 29.4312 50.9863 28.7605 52.3056 28.7605C52.557 28.7409 52.8102 28.7737 53.0478 28.8567C53.2855 28.9398 53.5025 29.0714 53.6859 29.2428C53.8693 29.4144 54.014 29.622 54.1113 29.8523C54.2078 30.0828 54.2551 30.3307 54.2499 30.5802H56.376C56.2288 28.5447 54.7089 27.0225 52.3056 27.0225C49.5431 27.0225 48.1826 28.6322 48.1826 30.1953C48.1826 32.0092 49.7024 33.0533 51.6106 33.0533H52.1643C53.9313 33.0533 54.4618 33.4557 54.4618 34.4297C54.4618 35.2929 53.5723 35.952 52.241 35.952C51.7088 35.9729 51.1904 35.7868 50.7952 35.4336C50.3999 35.0805 50.1597 34.5883 50.1261 34.0622H48C48.1292 36.1561 49.8669 37.6958 52.241 37.6958C55.0921 37.6958 56.5767 36.0628 56.5767 34.4297C56.5646 32.5808 55.0801 31.3152 52.7826 31.3152Z" fill="#775AF0"/>
</g>
<defs>
<clipPath id="clip0_20_2">
<rect width="155" height="48" fill="white"/>
</clipPath>
</defs>
</svg>
