<svg width="40" height="40" viewBox="0 0 40 40" fill="none" xmlns="http://www.w3.org/2000/svg">
<g clip-path="url(#clip0_2_52)">
<path d="M28.4882 14.4241C28.1685 14.2452 27.8085 14.1512 27.4425 14.1512C27.0765 14.1512 26.7167 14.2452 26.397 14.4241L21.5999 17.212L18.34 19.0302L13.5431 21.8182C13.2235 21.9972 12.8636 22.091 12.4976 22.091C12.1316 22.091 11.7716 21.9972 11.4521 21.8182L7.63874 19.6363C7.32848 19.458 7.06933 19.2027 6.88631 18.8948C6.70329 18.5868 6.60258 18.2368 6.59393 17.8787V13.5756C6.58963 13.2146 6.68491 12.8595 6.86928 12.5494C7.05364 12.2392 7.31993 11.9861 7.63874 11.818L11.3905 9.69672C11.71 9.51794 12.07 9.42407 12.436 9.42407C12.802 9.42407 13.1619 9.51794 13.4815 9.69672L17.2332 11.818C17.5434 11.9962 17.8027 12.2517 17.9857 12.5595C18.1687 12.8674 18.2694 13.2173 18.278 13.5756V16.3636L21.5375 14.4847V11.6968C21.5419 11.3358 21.4467 10.9807 21.2624 10.6705C21.0779 10.3604 20.8117 10.1073 20.4927 9.93915L13.5431 5.93932C13.2235 5.76055 12.8636 5.66669 12.4976 5.66669C12.1316 5.66669 11.7716 5.76055 11.4521 5.93932L4.37834 9.93942C4.05956 10.1075 3.79333 10.3606 3.60896 10.6707C3.42459 10.9808 3.32928 11.3358 3.33351 11.6968V19.7577C3.32924 20.1187 3.42453 20.4737 3.60888 20.7838C3.79324 21.094 4.05953 21.3472 4.37834 21.5152L11.4512 25.5153C11.7708 25.694 12.1307 25.7878 12.4967 25.7878C12.8628 25.7878 13.2227 25.694 13.5423 25.5153L18.3394 22.788L21.5989 20.9092L26.3962 18.1818C26.7159 18.003 27.0759 17.9088 27.4419 17.9088C27.8079 17.9088 28.1677 18.003 28.4874 18.1818L32.239 20.303C32.5494 20.4813 32.8084 20.7367 32.9914 21.0445C33.1744 21.3525 33.2752 21.7025 33.2837 22.0605V26.3638C33.288 26.7247 33.1929 27.0798 33.0084 27.39C32.824 27.7002 32.5579 27.9532 32.239 28.1213L28.4874 30.3033C28.1677 30.4822 27.8077 30.576 27.4419 30.576C27.0759 30.576 26.7159 30.4822 26.3962 30.3033L22.6445 28.182C22.3342 28.0038 22.0752 27.7483 21.8922 27.4403C21.7092 27.1325 21.6084 26.7827 21.5999 26.4245V23.6362L18.34 25.515V28.303C18.3359 28.6638 18.4312 29.019 18.6155 29.3292C18.8 29.6393 19.0662 29.8925 19.3849 30.0605L26.4579 34.0607C26.7775 34.2395 27.1374 34.3333 27.5034 34.3333C27.8694 34.3333 28.2294 34.2395 28.5489 34.0607L35.6217 30.0605C35.9319 29.8823 36.1912 29.6268 36.3742 29.319C36.5572 29.011 36.658 28.6612 36.6665 28.303V20.2423C36.6709 19.8815 36.5757 19.5263 36.3912 19.2162C36.2069 18.906 35.9405 18.6528 35.6217 18.4848L28.4882 14.4241Z" fill="#8E88AB"/>
</g>
<defs>
<clipPath id="clip0_2_52">
<rect width="40" height="40" fill="white"/>
</clipPath>
</defs>
</svg>
