<svg width="25" height="25" viewBox="0 0 25 25" fill="none" xmlns="http://www.w3.org/2000/svg">
<path d="M12.9219 0.980011C10.6434 0.980011 8.41614 1.65565 6.52169 2.92148C4.62723 4.18731 3.15069 5.9865 2.27877 8.0915C1.40685 10.1965 1.17871 12.5128 1.62321 14.7475C2.06771 16.9822 3.16489 19.0348 4.77599 20.6459C6.38709 22.257 8.43976 23.3542 10.6744 23.7986C12.9091 24.2431 15.2254 24.015 17.3304 23.1431C19.4354 22.2712 21.2346 20.7946 22.5004 18.9001C23.7662 17.0058 24.4419 14.7785 24.4419 12.5C24.4419 9.44471 23.2281 6.51455 21.0677 4.35414C18.9073 2.19372 15.9772 0.980011 12.9219 0.980011ZM12.9219 3.38001C14.6533 3.37908 16.3492 3.87155 17.8108 4.79975C19.2724 5.72795 20.4392 7.05343 21.1746 8.62093C21.91 10.1884 22.1835 11.933 21.963 13.6504C21.7426 15.3677 21.0373 16.9867 19.9299 18.3176C19.8623 18.3977 19.7708 18.4539 19.6688 18.4781C19.5669 18.5023 19.4598 18.4932 19.3635 18.452C18.5187 18.068 17.4915 17.6936 16.3299 17.2616L15.6099 17.0024C15.4851 16.9544 15.3699 16.7432 15.3027 16.4648C15.2344 16.2201 15.2153 15.9643 15.2466 15.7122C15.278 15.46 15.359 15.2166 15.4851 14.996C16.5123 13.8632 17.1459 12.6536 17.1459 10.1C17.1962 9.52063 17.1234 8.93717 16.9324 8.38786C16.7415 7.83856 16.4366 7.33579 16.0378 6.91251C15.639 6.48924 15.1553 6.15501 14.6183 5.93172C14.0813 5.70842 13.5032 5.60111 12.9219 5.61681C12.3405 5.60111 11.7625 5.70842 11.2254 5.93172C10.6884 6.15501 10.2047 6.48924 9.80593 6.91251C9.40712 7.33579 9.10226 7.83856 8.91129 8.38786C8.72034 8.93717 8.64761 9.52063 8.69786 10.1C8.69786 12.6536 9.33146 13.8728 10.3587 14.996C10.4847 15.2166 10.5657 15.46 10.5971 15.7122C10.6284 15.9643 10.6093 16.2201 10.5411 16.4648C10.4739 16.7432 10.3587 16.9544 10.2339 17.0024L9.51385 17.3C8.35226 17.732 7.32506 18.1064 6.48026 18.4904C6.3839 18.5316 6.27687 18.5407 6.17492 18.5165C6.07297 18.4923 5.98146 18.4361 5.91386 18.356C4.79458 17.0258 4.07925 15.4031 3.8523 13.6797C3.62537 11.9561 3.8963 10.2036 4.63311 8.62899C5.36993 7.05443 6.54187 5.72354 8.01057 4.79346C9.47929 3.86338 11.1834 3.37293 12.9219 3.38001Z" fill="#8E88AB"/>
</svg>
