<svg width="80" height="80" viewBox="0 0 80 80" fill="none" xmlns="http://www.w3.org/2000/svg">
<g clip-path="url(#clip0_2_70)">
<path d="M3.33362 62.9885L3.33821 62.985L3.34737 62.9782L3.33362 62.9885L3.35998 62.969L17.1892 52.5656C17.1193 51.8348 17.0836 51.094 17.0836 50.3449V31.9541L30.8336 24.3679V42.2988L46.8752 30.2299V15.5173L62.9169 6.66669V18.1598L76.667 7.81611V10.115L62.9169 20.0276V21.8954L76.667 12.4138V14.7127L62.9169 23.7633V25.6311L76.667 17.0115V19.3104L62.9169 27.4988V29.3679L76.667 21.6092V23.908L62.9169 31.2357V33.1023L76.667 26.2069V28.5057L62.9169 34.9701V36.838L76.667 30.8046V33.1034L62.9169 38.7058V50.3449C62.9169 63.041 52.6568 73.3334 40.0003 73.3334C29.6467 73.3334 20.8969 66.4458 18.0553 56.9891L3.34278 62.9839L3.33362 62.9885ZM17.8266 56.1731L3.35195 62.9782L3.34622 62.9816L17.9363 56.5791C17.8986 56.4443 17.862 56.309 17.8266 56.1731ZM17.3363 53.7701L3.35998 62.969L3.34737 62.9782L17.3995 54.1701C17.3773 54.0372 17.3562 53.9039 17.3363 53.7701ZM17.6326 55.3693L3.37029 62.969L17.7255 55.7699C17.6934 55.6369 17.6624 55.5033 17.6326 55.3693ZM17.2312 52.9685L3.37716 62.9575L17.2803 53.37C17.2628 53.2365 17.2464 53.1027 17.2312 52.9685ZM46.8752 45.2437L30.9525 51.733C31.6083 55.5152 34.8966 58.3908 38.8545 58.3908C43.2843 58.3908 46.8752 54.7885 46.8752 50.3449V45.2437ZM46.8752 42.5127L30.8336 50.0564V50.3449C30.8336 50.5347 30.8402 50.723 30.853 50.9096L46.8752 43.8782V42.5127ZM46.8752 39.785L30.8336 48.3334V49.1942L46.8752 41.1483V39.785ZM46.8752 37.0529L30.8336 46.6081V47.4713L46.8752 38.4196V37.0529ZM46.8752 34.323L30.8336 44.8839V45.746L46.8752 35.6885V34.323ZM46.8752 31.5942L30.8336 43.161V44.0219L46.8752 32.9587V31.5942ZM3.34622 62.9816L3.34278 62.9839L3.35195 62.9782L17.5473 54.9686C17.5203 54.8356 17.4943 54.7022 17.4695 54.5683L3.34737 62.9782L3.34278 62.9839L3.33821 62.985L3.34622 62.9816Z" fill="white"/>
</g>
<defs>
<clipPath id="clip0_2_70">
<rect width="80" height="80" fill="white"/>
</clipPath>
</defs>
</svg>
